<svg width="76" height="76" viewBox="0 0 76 76" fill="none" xmlns="http://www.w3.org/2000/svg">
<g clip-path="url(#clip0_105_67)">
<mask id="mask0_105_67" style="mask-type:luminance" maskUnits="userSpaceOnUse" x="0" y="0" width="76" height="76">
<path d="M76 38C76 17.0132 58.9868 0 38 0C17.0132 0 0 17.0132 0 38C0 58.9868 17.0132 76 38 76C58.9868 76 76 58.9868 76 38Z" fill="white"/>
</mask>
<g mask="url(#mask0_105_67)">
<path d="M76 0H0V76H76V0Z" fill="#0007A4"/>
<path d="M19.0525 57.8674L67.2394 73.5243C73.8926 75.686 81.0386 72.045 83.2003 65.3918L98.8572 17.2049C101.019 10.5517 97.3779 3.40573 90.7247 1.24396L42.5378 -14.4129C35.8846 -16.5747 28.7387 -12.9336 26.5769 -6.2804L10.9201 41.9065C8.75829 48.5597 12.3993 55.7056 19.0525 57.8674Z" fill="#1072FF"/>
<path d="M40.4658 38.8613C44.9408 40.3643 49.1219 39.7767 53.0092 37.0985" stroke="white" stroke-width="2.22222" stroke-linecap="round"/>
<path d="M34.0644 31.2333C33.9022 30.0788 33.0686 29.2414 32.2027 29.3631C31.3367 29.4848 30.7663 30.5195 30.9286 31.6741C31.0908 32.8286 31.9244 33.666 32.7903 33.5443C33.6563 33.4226 34.2267 32.3879 34.0644 31.2333Z" fill="white"/>
<path d="M59.1513 27.7075C58.9891 26.5529 58.1555 25.7156 57.2896 25.8373C56.4237 25.959 55.8532 26.9936 56.0155 28.1482C56.1778 29.3028 57.0113 30.1401 57.8772 30.0184C58.7432 29.8967 59.3136 28.8621 59.1513 27.7075Z" fill="white"/>
</g>
</g>
<defs>
<clipPath id="clip0_105_67">
<rect width="76" height="76" fill="white"/>
</clipPath>
</defs>
</svg>
