<svg width="393" height="145" viewBox="0 0 393 145" fill="none" xmlns="http://www.w3.org/2000/svg">
<g clip-path="url(#clip0_109_2)">
<rect width="393" height="145" fill="url(#paint0_linear_109_2)"/>
<path d="M458 70.2886C441 133.789 495 336.789 195 99.7887C128.718 47.4263 -20 192.331 -20 133.789C-20 75.2464 93.2324 -55.7114 170 -55.7114C246.768 -55.7114 476.5 -135.711 458 70.2886Z" fill="#3083FF"/>
<path d="M384.5 48.5C384.5 78.8757 276.743 120.5 224 120.5C171.257 120.5 168.5 85.3757 168.5 55C168.5 24.6243 211.257 0 264 0C316.743 0 384.5 18.1243 384.5 48.5Z" fill="#CC0000"/>
<path d="M220 5C224.872 57 90.7219 185 25 185C-40.7219 185 -52 90.4523 -52 35.5C-52 -19.4523 3.77811 -82 69.5 -82C135.222 -82 220 -49.9523 220 5Z" fill="#FF0000"/>
<path d="M88.2443 93.6364C86.2841 93.6364 84.6032 93.3665 83.2017 92.8267C81.8097 92.2964 80.7017 91.572 79.8778 90.6534C79.054 89.7348 78.5189 88.7027 78.2727 87.5568L83.8693 86.804C84.0398 87.2396 84.3097 87.6468 84.679 88.0256C85.0483 88.4044 85.536 88.7074 86.142 88.9347C86.7576 89.1714 87.5057 89.2898 88.3864 89.2898C89.7027 89.2898 90.7869 88.9678 91.6392 88.3239C92.5009 87.6894 92.9318 86.6241 92.9318 85.1278V81.1364H92.6761C92.411 81.7424 92.0133 82.3153 91.483 82.8551C90.9527 83.3949 90.2708 83.8352 89.4375 84.1761C88.6042 84.517 87.6098 84.6875 86.4545 84.6875C84.8163 84.6875 83.3248 84.3087 81.9801 83.5511C80.6449 82.7841 79.5795 81.6146 78.7841 80.0426C77.9981 78.4612 77.6051 76.4631 77.6051 74.0483C77.6051 71.5767 78.0076 69.5123 78.8125 67.8551C79.6174 66.1979 80.6875 64.9574 82.0227 64.1335C83.3674 63.3097 84.84 62.8977 86.4403 62.8977C87.6619 62.8977 88.6847 63.1061 89.5085 63.5227C90.3324 63.9299 90.9953 64.4413 91.4972 65.0568C92.0085 65.6629 92.4015 66.2595 92.6761 66.8466H92.9034V63.1818H98.9119V85.2131C98.9119 87.0691 98.4574 88.6222 97.5483 89.8722C96.6392 91.1222 95.3797 92.0597 93.7699 92.6847C92.1695 93.3191 90.3277 93.6364 88.2443 93.6364ZM88.3722 80.142C89.3475 80.142 90.1714 79.9006 90.8438 79.4176C91.5256 78.9252 92.0464 78.2244 92.4062 77.3153C92.7756 76.3968 92.9602 75.2983 92.9602 74.0199C92.9602 72.7415 92.7803 71.6335 92.4205 70.696C92.0606 69.7491 91.5398 69.0152 90.858 68.4943C90.1761 67.9735 89.3475 67.7131 88.3722 67.7131C87.3778 67.7131 86.5398 67.983 85.858 68.5227C85.1761 69.053 84.66 69.7917 84.3097 70.7386C83.9593 71.6856 83.7841 72.7794 83.7841 74.0199C83.7841 75.2794 83.9593 76.3684 84.3097 77.2869C84.6695 78.196 85.1856 78.9015 85.858 79.4034C86.5398 79.8958 87.3778 80.142 88.3722 80.142ZM113.585 85.4261C111.379 85.4261 109.471 84.9574 107.861 84.0199C106.26 83.0729 105.025 81.7566 104.153 80.071C103.282 78.3759 102.847 76.411 102.847 74.1761C102.847 71.9223 103.282 69.9527 104.153 68.267C105.025 66.572 106.26 65.2557 107.861 64.3182C109.471 63.3712 111.379 62.8977 113.585 62.8977C115.792 62.8977 117.695 63.3712 119.295 64.3182C120.905 65.2557 122.146 66.572 123.017 68.267C123.888 69.9527 124.324 71.9223 124.324 74.1761C124.324 76.411 123.888 78.3759 123.017 80.071C122.146 81.7566 120.905 83.0729 119.295 84.0199C117.695 84.9574 115.792 85.4261 113.585 85.4261ZM113.614 80.7386C114.617 80.7386 115.455 80.4545 116.128 79.8864C116.8 79.3087 117.307 78.5227 117.648 77.5284C117.998 76.5341 118.173 75.4025 118.173 74.1335C118.173 72.8646 117.998 71.733 117.648 70.7386C117.307 69.7443 116.8 68.9583 116.128 68.3807C115.455 67.803 114.617 67.5142 113.614 67.5142C112.6 67.5142 111.748 67.803 111.057 68.3807C110.375 68.9583 109.859 69.7443 109.509 70.7386C109.168 71.733 108.997 72.8646 108.997 74.1335C108.997 75.4025 109.168 76.5341 109.509 77.5284C109.859 78.5227 110.375 79.3087 111.057 79.8864C111.748 80.4545 112.6 80.7386 113.614 80.7386ZM138.116 85.4261C135.91 85.4261 134.002 84.9574 132.392 84.0199C130.792 83.0729 129.556 81.7566 128.685 80.071C127.813 78.3759 127.378 76.411 127.378 74.1761C127.378 71.9223 127.813 69.9527 128.685 68.267C129.556 66.572 130.792 65.2557 132.392 64.3182C134.002 63.3712 135.91 62.8977 138.116 62.8977C140.323 62.8977 142.226 63.3712 143.827 64.3182C145.437 65.2557 146.677 66.572 147.548 68.267C148.42 69.9527 148.855 71.9223 148.855 74.1761C148.855 76.411 148.42 78.3759 147.548 80.071C146.677 81.7566 145.437 83.0729 143.827 84.0199C142.226 84.9574 140.323 85.4261 138.116 85.4261ZM138.145 80.7386C139.149 80.7386 139.987 80.4545 140.659 79.8864C141.331 79.3087 141.838 78.5227 142.179 77.5284C142.529 76.5341 142.705 75.4025 142.705 74.1335C142.705 72.8646 142.529 71.733 142.179 70.7386C141.838 69.7443 141.331 68.9583 140.659 68.3807C139.987 67.803 139.149 67.5142 138.145 67.5142C137.132 67.5142 136.279 67.803 135.588 68.3807C134.906 68.9583 134.39 69.7443 134.04 70.7386C133.699 71.733 133.528 72.8646 133.528 74.1335C133.528 75.4025 133.699 76.5341 134.04 77.5284C134.39 78.5227 134.906 79.3087 135.588 79.8864C136.279 80.4545 137.132 80.7386 138.145 80.7386ZM160.83 85.3551C159.172 85.3551 157.671 84.929 156.327 84.0767C154.991 83.215 153.931 81.9508 153.145 80.2841C152.368 78.608 151.98 76.553 151.98 74.1193C151.98 71.6193 152.383 69.5407 153.188 67.8835C153.992 66.2169 155.063 64.9716 156.398 64.1477C157.742 63.3144 159.215 62.8977 160.815 62.8977C162.037 62.8977 163.055 63.1061 163.869 63.5227C164.693 63.9299 165.356 64.4413 165.858 65.0568C166.369 65.6629 166.758 66.2595 167.023 66.8466H167.207V55.9091H173.244V85H167.278V81.5057H167.023C166.739 82.1117 166.336 82.7131 165.815 83.3097C165.304 83.8968 164.636 84.3845 163.812 84.7727C162.998 85.161 162.004 85.3551 160.83 85.3551ZM162.747 80.5398C163.723 80.5398 164.546 80.2746 165.219 79.7443C165.901 79.2045 166.421 78.4517 166.781 77.4858C167.151 76.5199 167.335 75.3883 167.335 74.0909C167.335 72.7936 167.155 71.6667 166.795 70.7102C166.436 69.7538 165.915 69.0152 165.233 68.4943C164.551 67.9735 163.723 67.7131 162.747 67.7131C161.753 67.7131 160.915 67.983 160.233 68.5227C159.551 69.0625 159.035 69.8106 158.685 70.767C158.334 71.7235 158.159 72.8314 158.159 74.0909C158.159 75.3598 158.334 76.482 158.685 77.4574C159.045 78.4233 159.561 79.1809 160.233 79.7301C160.915 80.2699 161.753 80.5398 162.747 80.5398ZM188.362 63.1818V66.0227H177.055V63.1818H188.362ZM180.35 57.9545H183.702V78.75C183.702 79.697 183.84 80.4072 184.114 80.8807C184.398 81.3447 184.758 81.6572 185.194 81.8182C185.639 81.9697 186.108 82.0455 186.6 82.0455C186.969 82.0455 187.272 82.0265 187.509 81.9886C187.746 81.9413 187.935 81.9034 188.077 81.875L188.759 84.8864C188.532 84.9716 188.215 85.0568 187.808 85.142C187.4 85.2367 186.884 85.2841 186.259 85.2841C185.312 85.2841 184.384 85.0805 183.475 84.6733C182.576 84.2661 181.827 83.6458 181.231 82.8125C180.644 81.9792 180.35 80.928 180.35 79.6591V57.9545ZM202.317 85.4545C200.215 85.4545 198.402 84.9905 196.877 84.0625C195.362 83.125 194.192 81.8182 193.369 80.142C192.554 78.4564 192.147 76.4962 192.147 74.2614C192.147 72.0265 192.554 70.0568 193.369 68.3523C194.192 66.6383 195.338 65.303 196.806 64.3466C198.283 63.3807 200.007 62.8977 201.977 62.8977C203.113 62.8977 204.235 63.0871 205.343 63.4659C206.451 63.8447 207.46 64.4602 208.369 65.3125C209.278 66.1553 210.002 67.2727 210.542 68.6648C211.082 70.0568 211.352 71.7708 211.352 73.8068V75.2273H194.533V72.3295H207.942C207.942 71.0985 207.696 70 207.204 69.0341C206.721 68.0682 206.03 67.3059 205.13 66.7472C204.24 66.1884 203.189 65.9091 201.977 65.9091C200.641 65.9091 199.486 66.2405 198.511 66.9034C197.545 67.5568 196.801 68.4091 196.281 69.4602C195.76 70.5114 195.499 71.6383 195.499 72.8409V74.7727C195.499 76.4205 195.783 77.8172 196.352 78.9631C196.929 80.0994 197.729 80.9659 198.752 81.5625C199.775 82.1496 200.963 82.4432 202.317 82.4432C203.198 82.4432 203.994 82.3201 204.704 82.0739C205.424 81.8182 206.044 81.4394 206.565 80.9375C207.085 80.4261 207.488 79.7917 207.772 79.0341L211.011 79.9432C210.67 81.0417 210.097 82.0076 209.292 82.8409C208.487 83.6648 207.493 84.3087 206.309 84.7727C205.125 85.2273 203.795 85.4545 202.317 85.4545ZM222.871 85.5114C221.489 85.5114 220.234 85.2509 219.107 84.7301C217.98 84.1998 217.085 83.4375 216.423 82.4432C215.76 81.4394 215.428 80.2273 215.428 78.8068C215.428 77.5568 215.674 76.5436 216.167 75.767C216.659 74.9811 217.317 74.3655 218.141 73.9205C218.965 73.4754 219.874 73.1439 220.869 72.9261C221.872 72.6989 222.881 72.5189 223.894 72.3864C225.22 72.2159 226.295 72.0881 227.119 72.0028C227.952 71.9081 228.558 71.7519 228.937 71.5341C229.325 71.3163 229.519 70.9375 229.519 70.3977V70.2841C229.519 68.8826 229.136 67.7936 228.369 67.017C227.611 66.2405 226.46 65.8523 224.917 65.8523C223.317 65.8523 222.062 66.2027 221.153 66.9034C220.244 67.6042 219.604 68.3523 219.235 69.1477L216.053 68.0114C216.621 66.6856 217.379 65.6534 218.326 64.9148C219.282 64.1667 220.324 63.6458 221.451 63.3523C222.587 63.0492 223.705 62.8977 224.803 62.8977C225.504 62.8977 226.309 62.983 227.218 63.1534C228.137 63.3144 229.022 63.6506 229.874 64.1619C230.736 64.6733 231.451 65.4451 232.019 66.4773C232.587 67.5095 232.871 68.892 232.871 70.625V85H229.519V82.0455H229.349C229.121 82.5189 228.743 83.0256 228.212 83.5653C227.682 84.1051 226.977 84.5644 226.096 84.9432C225.215 85.322 224.14 85.5114 222.871 85.5114ZM223.383 82.5C224.709 82.5 225.826 82.2396 226.735 81.7188C227.654 81.1979 228.345 80.5256 228.809 79.7017C229.282 78.8778 229.519 78.0114 229.519 77.1023V74.0341C229.377 74.2045 229.065 74.3608 228.582 74.5028C228.108 74.6354 227.559 74.7538 226.934 74.858C226.318 74.9527 225.717 75.0379 225.13 75.1136C224.552 75.1799 224.084 75.2367 223.724 75.2841C222.853 75.3977 222.038 75.5824 221.281 75.8381C220.532 76.0843 219.926 76.4583 219.462 76.9602C219.008 77.4527 218.781 78.125 218.781 78.9773C218.781 80.142 219.211 81.0227 220.073 81.6193C220.944 82.2064 222.048 82.5 223.383 82.5ZM247.854 85.4545C245.808 85.4545 244.047 84.9716 242.57 84.0057C241.092 83.0398 239.956 81.7093 239.161 80.0142C238.365 78.3191 237.967 76.3826 237.967 74.2045C237.967 71.9886 238.375 70.0331 239.189 68.3381C240.013 66.6335 241.159 65.303 242.626 64.3466C244.104 63.3807 245.827 62.8977 247.797 62.8977C249.331 62.8977 250.714 63.1818 251.945 63.75C253.176 64.3182 254.184 65.1136 254.97 66.1364C255.756 67.1591 256.244 68.3523 256.433 69.7159H253.081C252.825 68.7216 252.257 67.8409 251.376 67.0739C250.505 66.2973 249.331 65.9091 247.854 65.9091C246.547 65.9091 245.401 66.25 244.416 66.9318C243.441 67.6042 242.679 68.5559 242.129 69.7869C241.589 71.0085 241.32 72.4432 241.32 74.0909C241.32 75.7765 241.585 77.2443 242.115 78.4943C242.655 79.7443 243.412 80.715 244.388 81.4062C245.373 82.0975 246.528 82.4432 247.854 82.4432C248.725 82.4432 249.516 82.2917 250.226 81.9886C250.936 81.6856 251.537 81.25 252.03 80.6818C252.522 80.1136 252.873 79.4318 253.081 78.6364H256.433C256.244 79.9242 255.775 81.0843 255.027 82.1165C254.288 83.1392 253.308 83.9536 252.087 84.5597C250.875 85.1562 249.464 85.4545 247.854 85.4545ZM264.686 71.875V85H261.334V55.9091H264.686V66.5909H264.97C265.482 65.464 266.249 64.5691 267.271 63.9062C268.304 63.2339 269.677 62.8977 271.391 62.8977C272.877 62.8977 274.179 63.196 275.297 63.7926C276.414 64.3797 277.281 65.2841 277.896 66.5057C278.521 67.7178 278.834 69.2614 278.834 71.1364V85H275.482V71.3636C275.482 69.6307 275.032 68.2907 274.132 67.3438C273.242 66.3873 272.006 65.9091 270.425 65.9091C269.326 65.9091 268.341 66.1411 267.47 66.6051C266.608 67.0691 265.927 67.7462 265.425 68.6364C264.932 69.5265 264.686 70.6061 264.686 71.875ZM294.114 85.4545C292.012 85.4545 290.199 84.9905 288.674 84.0625C287.159 83.125 285.989 81.8182 285.165 80.142C284.351 78.4564 283.944 76.4962 283.944 74.2614C283.944 72.0265 284.351 70.0568 285.165 68.3523C285.989 66.6383 287.135 65.303 288.603 64.3466C290.08 63.3807 291.804 62.8977 293.773 62.8977C294.91 62.8977 296.032 63.0871 297.14 63.4659C298.248 63.8447 299.256 64.4602 300.165 65.3125C301.075 66.1553 301.799 67.2727 302.339 68.6648C302.879 70.0568 303.148 71.7708 303.148 73.8068V75.2273H286.33V72.3295H299.739C299.739 71.0985 299.493 70 299.001 69.0341C298.518 68.0682 297.826 67.3059 296.927 66.7472C296.037 66.1884 294.986 65.9091 293.773 65.9091C292.438 65.9091 291.283 66.2405 290.308 66.9034C289.342 67.5568 288.598 68.4091 288.077 69.4602C287.557 70.5114 287.296 71.6383 287.296 72.8409V74.7727C287.296 76.4205 287.58 77.8172 288.148 78.9631C288.726 80.0994 289.526 80.9659 290.549 81.5625C291.572 82.1496 292.76 82.4432 294.114 82.4432C294.995 82.4432 295.79 82.3201 296.501 82.0739C297.22 81.8182 297.841 81.4394 298.362 80.9375C298.882 80.4261 299.285 79.7917 299.569 79.0341L302.808 79.9432C302.467 81.0417 301.894 82.0076 301.089 82.8409C300.284 83.6648 299.29 84.3087 298.106 84.7727C296.922 85.2273 295.592 85.4545 294.114 85.4545ZM308.248 85V63.1818H311.487V66.4773H311.714C312.112 65.3977 312.831 64.5218 313.873 63.8494C314.915 63.1771 316.089 62.8409 317.396 62.8409C317.642 62.8409 317.95 62.8456 318.319 62.8551C318.688 62.8646 318.968 62.8788 319.157 62.8977V66.3068C319.043 66.2784 318.783 66.2358 318.376 66.179C317.978 66.1127 317.557 66.0795 317.112 66.0795C316.051 66.0795 315.104 66.3021 314.271 66.7472C313.447 67.1828 312.793 67.7888 312.31 68.5653C311.837 69.3324 311.6 70.2083 311.6 71.1932V85H308.248Z" fill="white"/>
</g>
<defs>
<linearGradient id="paint0_linear_109_2" x1="0" y1="0" x2="13.7201" y2="174.774" gradientUnits="userSpaceOnUse">
<stop offset="0.515625" stop-color="#99D4FF"/>
<stop offset="1" stop-color="#3083FF"/>
</linearGradient>
<clipPath id="clip0_109_2">
<rect width="393" height="145" fill="white"/>
</clipPath>
</defs>
</svg>
