<svg width="526" height="194" viewBox="0 0 526 194" fill="none" xmlns="http://www.w3.org/2000/svg">
<g clip-path="url(#clip0_63_5)">
<rect width="526" height="194" fill="white"/>
<rect width="526" height="194" fill="#D9D9D9"/>
<rect width="526" height="194" fill="url(#paint0_linear_63_5)"/>
<path d="M137.074 74.4545V121H127.528L109.006 94.1364H108.71V121H97.4602V74.4545H107.142L125.46 101.273H125.847V74.4545H137.074ZM160.466 121.659C156.814 121.659 153.663 120.939 151.011 119.5C148.375 118.045 146.345 115.977 144.92 113.295C143.511 110.598 142.807 107.394 142.807 103.682C142.807 100.076 143.519 96.9242 144.943 94.2273C146.367 91.5152 148.375 89.4091 150.966 87.9091C153.557 86.3939 156.61 85.6364 160.125 85.6364C162.61 85.6364 164.883 86.0227 166.943 86.7955C169.004 87.5682 170.784 88.7121 172.284 90.2273C173.784 91.7424 174.951 93.6136 175.784 95.8409C176.617 98.053 177.034 100.591 177.034 103.455V106.227H146.693V99.7727H166.693C166.678 98.5909 166.398 97.5379 165.852 96.6136C165.307 95.6894 164.557 94.9697 163.602 94.4545C162.663 93.9242 161.58 93.6591 160.352 93.6591C159.11 93.6591 157.996 93.9394 157.011 94.5C156.027 95.0455 155.246 95.7955 154.67 96.75C154.095 97.6894 153.792 98.7576 153.761 99.9545V106.523C153.761 107.947 154.042 109.197 154.602 110.273C155.163 111.333 155.958 112.159 156.989 112.75C158.019 113.341 159.246 113.636 160.67 113.636C161.655 113.636 162.549 113.5 163.352 113.227C164.155 112.955 164.845 112.553 165.42 112.023C165.996 111.492 166.428 110.841 166.716 110.068L176.92 110.364C176.496 112.652 175.564 114.644 174.125 116.341C172.701 118.023 170.83 119.333 168.511 120.273C166.193 121.197 163.511 121.659 160.466 121.659ZM188.858 121L179.767 86.0909H190.926L195.631 108.455H195.926L200.972 86.0909H211.858L217.04 108.295H217.335L221.903 86.0909H233.062L223.949 121H212.062L206.608 100.659H206.222L200.767 121H188.858ZM251.273 121V74.4545H262.523V93.1364H280.864V74.4545H292.091V121H280.864V102.295H262.523V121H251.273ZM315.443 121.659C311.777 121.659 308.625 120.909 305.989 119.409C303.367 117.894 301.345 115.788 299.92 113.091C298.511 110.379 297.807 107.235 297.807 103.659C297.807 100.068 298.511 96.9242 299.92 94.2273C301.345 91.5152 303.367 89.4091 305.989 87.9091C308.625 86.3939 311.777 85.6364 315.443 85.6364C319.11 85.6364 322.254 86.3939 324.875 87.9091C327.511 89.4091 329.534 91.5152 330.943 94.2273C332.367 96.9242 333.08 100.068 333.08 103.659C333.08 107.235 332.367 110.379 330.943 113.091C329.534 115.788 327.511 117.894 324.875 119.409C322.254 120.909 319.11 121.659 315.443 121.659ZM315.511 113.273C316.845 113.273 317.973 112.864 318.898 112.045C319.822 111.227 320.527 110.091 321.011 108.636C321.511 107.182 321.761 105.5 321.761 103.591C321.761 101.652 321.511 99.9545 321.011 98.5C320.527 97.0455 319.822 95.9091 318.898 95.0909C317.973 94.2727 316.845 93.8636 315.511 93.8636C314.133 93.8636 312.966 94.2727 312.011 95.0909C311.072 95.9091 310.352 97.0455 309.852 98.5C309.367 99.9545 309.125 101.652 309.125 103.591C309.125 105.5 309.367 107.182 309.852 108.636C310.352 110.091 311.072 111.227 312.011 112.045C312.966 112.864 314.133 113.273 315.511 113.273ZM338.773 121V86.0909H349.341V92.5H349.727C350.455 90.3788 351.682 88.7045 353.409 87.4773C355.136 86.25 357.197 85.6364 359.591 85.6364C362.015 85.6364 364.091 86.2576 365.818 87.5C367.545 88.7424 368.644 90.4091 369.114 92.5H369.477C370.129 90.4242 371.402 88.7652 373.295 87.5227C375.189 86.2652 377.424 85.6364 380 85.6364C383.303 85.6364 385.985 86.697 388.045 88.8182C390.106 90.9242 391.136 93.8182 391.136 97.5V121H380.023V100.045C380.023 98.303 379.576 96.9773 378.682 96.0682C377.788 95.1439 376.629 94.6818 375.205 94.6818C373.674 94.6818 372.47 95.1818 371.591 96.1818C370.727 97.1667 370.295 98.4924 370.295 100.159V121H359.614V99.9318C359.614 98.3106 359.174 97.0303 358.295 96.0909C357.417 95.1515 356.258 94.6818 354.818 94.6818C353.848 94.6818 352.992 94.9167 352.25 95.3864C351.508 95.8409 350.924 96.4924 350.5 97.3409C350.091 98.1894 349.886 99.1894 349.886 100.341V121H338.773ZM414.341 121.659C410.689 121.659 407.538 120.939 404.886 119.5C402.25 118.045 400.22 115.977 398.795 113.295C397.386 110.598 396.682 107.394 396.682 103.682C396.682 100.076 397.394 96.9242 398.818 94.2273C400.242 91.5152 402.25 89.4091 404.841 87.9091C407.432 86.3939 410.485 85.6364 414 85.6364C416.485 85.6364 418.758 86.0227 420.818 86.7955C422.879 87.5682 424.659 88.7121 426.159 90.2273C427.659 91.7424 428.826 93.6136 429.659 95.8409C430.492 98.053 430.909 100.591 430.909 103.455V106.227H400.568V99.7727H420.568C420.553 98.5909 420.273 97.5379 419.727 96.6136C419.182 95.6894 418.432 94.9697 417.477 94.4545C416.538 93.9242 415.455 93.6591 414.227 93.6591C412.985 93.6591 411.871 93.9394 410.886 94.5C409.902 95.0455 409.121 95.7955 408.545 96.75C407.97 97.6894 407.667 98.7576 407.636 99.9545V106.523C407.636 107.947 407.917 109.197 408.477 110.273C409.038 111.333 409.833 112.159 410.864 112.75C411.894 113.341 413.121 113.636 414.545 113.636C415.53 113.636 416.424 113.5 417.227 113.227C418.03 112.955 418.72 112.553 419.295 112.023C419.871 111.492 420.303 110.841 420.591 110.068L430.795 110.364C430.371 112.652 429.439 114.644 428 116.341C426.576 118.023 424.705 119.333 422.386 120.273C420.068 121.197 417.386 121.659 414.341 121.659Z" fill="url(#paint1_radial_63_5)"/>
</g>
<defs>
<linearGradient id="paint0_linear_63_5" x1="452.031" y1="-9.79327" x2="276.933" y2="358.668" gradientUnits="userSpaceOnUse">
<stop stop-color="#343434"/>
<stop offset="1" stop-color="#111111"/>
</linearGradient>
<radialGradient id="paint1_radial_63_5" cx="0" cy="0" r="1" gradientUnits="userSpaceOnUse" gradientTransform="translate(264.479 107.125) rotate(90) scale(39.375 215.284)">
<stop stop-color="#E4E4E7"/>
<stop offset="1" stop-color="#606060"/>
</radialGradient>
<clipPath id="clip0_63_5">
<rect width="526" height="194" fill="white"/>
</clipPath>
</defs>
</svg>
